<?xml version="1.0" encoding="UTF-8" standalone="no"?>
<!-- Created with Inkscape (http://www.inkscape.org/) -->

<svg
   xmlns:dc="http://purl.org/dc/elements/1.1/"
   xmlns:cc="http://creativecommons.org/ns#"
   xmlns:rdf="http://www.w3.org/1999/02/22-rdf-syntax-ns#"
   xmlns:svg="http://www.w3.org/2000/svg"
   xmlns="http://www.w3.org/2000/svg"
   xmlns:sodipodi="http://sodipodi.sourceforge.net/DTD/sodipodi-0.dtd"
   xmlns:inkscape="http://www.inkscape.org/namespaces/inkscape"
   width="100mm"
   height="100mm"
   viewBox="0 0 100 100"
   version="1.1"
   id="svg8"
   inkscape:version="0.92.3 (2405546, 2018-03-11)"
   sodipodi:docname="face.svg">
  <defs
     id="defs2" />
  <sodipodi:namedview
     id="base"
     pagecolor="#ffffff"
     bordercolor="#666666"
     borderopacity="1.0"
     inkscape:pageopacity="0.0"
     inkscape:pageshadow="2"
     inkscape:zoom="2"
     inkscape:cx="140.51774"
     inkscape:cy="186.11563"
     inkscape:document-units="mm"
     inkscape:current-layer="layer1"
     showgrid="false"
     inkscape:window-width="1908"
     inkscape:window-height="1068"
     inkscape:window-x="5"
     inkscape:window-y="5"
     inkscape:window-maximized="1"
     showguides="true"
     inkscape:guide-bbox="true" />
  <metadata
     id="metadata5">
    <rdf:RDF>
      <cc:Work
         rdf:about="">
        <dc:format>image/svg+xml</dc:format>
        <dc:type
           rdf:resource="http://purl.org/dc/dcmitype/StillImage" />
        <dc:title />
      </cc:Work>
    </rdf:RDF>
  </metadata>
  <g
     inkscape:label="Layer 1"
     inkscape:groupmode="layer"
     id="layer1"
     transform="translate(0,-197)">
     <circle
      style="fill:#ffffff;fill-opacity:1;stroke:#e0e0e0;stroke-width:2.25;stroke-miterlimit:4;stroke-dasharray:none;stroke-opacity:1"
      id="path973"
      cx="50.004501"
      cy="247.0005"
      r="48.5"
    />

    <path
       id="path5090-6-5-2-5-3-2-2"
       style="fill:none;stroke:#000000;stroke-width:0.75;stroke-linecap:butt;stroke-linejoin:miter;stroke-miterlimit:4;stroke-dasharray:none;stroke-opacity:1"
       d="m 54.70528,291.7324 0.261321,2.48631 z m 4.6536,-0.73311 0.519772,2.44538 z m 4.54972,-1.21914 0.772551,2.37766 z m 4.399491,-1.68461 1.016839,2.28386 z m 2.94384,-4.31397 2.49999,4.33013 z m 5.19378,-0.39586 1.46947,2.02255 z m 3.66358,-2.96168 1.67283,1.85787 z m 3.33061,-3.33067 1.85787,1.67283 z m 2.96776,-3.65867 2.022539,1.46947 z m 0.39789,-5.19661 4.33012,2.5 z m 4.30002,-2.93972 2.28387,1.01685 z m 1.69191,-4.39668 2.37765,0.77254 z m 1.21906,-4.54976 2.44538,0.51979 z m 0.74082,-4.65237 2.48631,0.26132 z m -2.283668,-4.66757 h 4.999992 z m 2.254066,-4.69588 2.486313,-0.26132 z m -0.733105,-4.6536 2.445377,-0.51977 z m -1.21914,-4.54972 2.377652,-0.77255 z m -1.684617,-4.39949 2.283866,-1.01684 z m -4.313962,-2.94384 4.330123,-2.49999 z m -0.395859,-5.19378 2.022547,-1.46947 z m -2.961686,-3.66358 1.857869,-1.67283 z m -3.33067,-3.33061 1.672834,-1.85787 z m -3.658665,-2.96776 1.469467,-2.02254 z m -5.196616,-0.39789 2.5,-4.33012 z m -2.939717,-4.30002 1.016846,-2.28387 z m -4.396685,-1.69191 0.772547,-2.37765 z m -4.549751,-1.21906 0.519782,-2.44538 z m -4.652375,-0.74082 0.261324,-2.48631 z m -4.708832,2.2754 v -4.99999 z m -4.69588,-2.25407 -0.26132,-2.48631 z m -4.6536,0.73311 -0.51977,-2.44538 z m -4.54972,1.21914 -0.77255,-2.37766 z m -4.39949,1.68461 -1.01684,-2.28386 z m -2.94384,4.31397 -2.49999,-4.33013 z m -5.19378,0.39586 -1.46947,-2.02255 z m -3.66358,2.96168 -1.67283,-1.85787 z m -3.33061,3.33067 -1.85787,-1.67283 z m -2.96776,3.65867 -2.02254,-1.46947 z m -0.39789,5.19661 -4.3301202,-2.5 z m -4.3000202,2.93972 -2.28387,-1.01685 z m -1.69191,4.39668 -2.37765,-0.77254 z m -1.21906,4.54976 -2.44538,-0.51979 z m -0.74082,4.65237 -2.48631,-0.26132 z m 2.2836673,4.66757 H 2.5217944 Z m -2.2540661,4.69588 -2.4863129,0.26132 z m 0.7331053,4.6536 -2.4453767,0.51977 z m 1.2191398,4.54972 -2.3776517,0.77255 z m 1.6846169,4.39949 -2.2838658,1.01684 z m 4.313963,2.94384 -4.3301231,2.49999 z m 0.395859,5.19378 -2.022548,1.46947 z m 2.961686,3.66358 -1.857869,1.67283 z m 3.33067,3.33061 -1.672834,1.85787 z m 3.658665,2.96776 -1.469467,2.02254 z M 97.168779,251.95742 A 47.424641,47.424644 6 0 1 45.046711,294.16505 47.424641,47.424644 6 0 1 2.8390929,242.04297 47.424641,47.424644 6 0 1 54.961161,199.83535 47.424641,47.424644 6 0 1 97.168779,251.95742 Z m -68.406738,31.8445 -2.5,4.33012 z m 2.939716,4.30002 -1.016845,2.28387 z m 4.396685,1.69191 -0.772545,2.37765 z m 4.549751,1.21906 -0.519781,2.44538 z m 4.652375,0.74082 -0.261322,2.48631 z M 49.999912,289.5 v 5 z"
       inkscape:connector-curvature="0" />
    <g
       aria-label="12"
       transform="matrix(0.20210526,0,0,0.20210526,16.6185,183.39053)"
       style="font-style:normal;font-variant:normal;font-weight:normal;font-stretch:normal;font-size:40px;line-height:1.25;font-family:peep;-inkscape-font-specification:peep;letter-spacing:0px;word-spacing:0px;fill:#000000;fill-opacity:1;stroke:none"
       id="flowRoot5818">
      <path
         d="m 144.47656,140.71094 h 6.44531 v -22.2461 l -7.01171,1.40625 v -3.59375 l 6.97265,-1.40625 h 3.94531 v 25.83985 h 6.44532 v 3.32031 h -16.79688 z"
         id="path6166"
         inkscape:connector-curvature="0" />
      <path
         d="m 172.66016,140.71094 h 13.76953 v 3.32031 h -18.51563 v -3.32031 q 2.2461,-2.32422 6.11328,-6.23047 3.88672,-3.92578 4.88282,-5.0586 1.89453,-2.1289 2.63671,-3.59374 0.76172,-1.48438 0.76172,-2.91016 0,-2.32422 -1.64062,-3.78906 -1.6211,-1.46485 -4.23828,-1.46485 -1.85547,0 -3.92578,0.64453 -2.05079,0.64454 -4.39454,1.95313 v -3.98438 q 2.38282,-0.95703 4.45313,-1.44531 2.07031,-0.48828 3.78906,-0.48828 4.53125,0 7.22656,2.26563 2.69532,2.26562 2.69532,6.05468 0,1.79688 -0.6836,3.41797 -0.66406,1.60156 -2.4414,3.78906 -0.48828,0.56641 -3.10547,3.28125 -2.61719,2.69532 -7.38281,7.5586 z"
         id="path6168"
         inkscape:connector-curvature="0" />
    </g>
    <g
       aria-label="5"
       transform="matrix(0.20576771,0,0,0.20576021,37.466203,252.78201)"
       style="font-style:normal;font-variant:normal;font-weight:normal;font-stretch:normal;font-size:40px;line-height:1.25;font-family:peep;-inkscape-font-specification:peep;letter-spacing:0px;word-spacing:0px;fill:#000000;fill-opacity:1;stroke:none"
       id="flowRoot5818-9-8">
      <path
         d="m 143.83203,114.87109 h 15.48828 v 3.32032 h -11.875 v 7.14843 q 0.85938,-0.29296 1.71875,-0.42968 0.85938,-0.15625 1.71875,-0.15625 4.88281,0 7.73438,2.67578 2.85156,2.67578 2.85156,7.24609 0,4.70703 -2.92969,7.32422 -2.92969,2.59766 -8.26172,2.59766 -1.83593,0 -3.75,-0.3125 -1.89453,-0.3125 -3.92578,-0.9375 v -3.96485 q 1.75781,0.95703 3.63281,1.42578 1.875,0.46875 3.96485,0.46875 3.3789,0 5.35156,-1.77734 1.97266,-1.77734 1.97266,-4.82422 0,-3.04687 -1.97266,-4.82422 -1.97266,-1.77734 -5.35156,-1.77734 -1.58203,0 -3.16406,0.35156 -1.5625,0.35156 -3.20313,1.09375 z"
         id="path6163"
         inkscape:connector-curvature="0" />
    </g>
    <g
       aria-label="6"
       transform="matrix(0.20576771,0,0,0.20576021,18.646487,257.86006)"
       style="font-style:normal;font-variant:normal;font-weight:normal;font-stretch:normal;font-size:40px;line-height:1.25;font-family:peep;-inkscape-font-specification:peep;letter-spacing:0px;word-spacing:0px;fill:#000000;fill-opacity:1;stroke:none"
       id="flowRoot5818-9-8-2">
      <path
         d="m 152.71875,127.87891 q -2.65625,0 -4.21875,1.8164 -1.54297,1.81641 -1.54297,4.98047 0,3.14453 1.54297,4.98047 1.5625,1.81641 4.21875,1.81641 2.65625,0 4.19922,-1.81641 1.5625,-1.83594 1.5625,-4.98047 0,-3.16406 -1.5625,-4.98047 -1.54297,-1.8164 -4.19922,-1.8164 z m 7.83203,-12.36328 v 3.59375 q -1.48437,-0.70313 -3.00781,-1.07422 -1.50391,-0.3711 -2.98828,-0.3711 -3.90625,0 -5.97657,2.63672 -2.05078,2.63672 -2.34375,7.96875 1.15235,-1.69922 2.89063,-2.59765 1.73828,-0.91797 3.82812,-0.91797 4.39454,0 6.9336,2.67578 2.55859,2.65625 2.55859,7.24609 0,4.49219 -2.65625,7.20703 -2.65625,2.71485 -7.07031,2.71485 -5.05859,0 -7.73438,-3.86719 -2.67578,-3.88672 -2.67578,-11.25 0,-6.91406 3.28125,-11.01563 3.28125,-4.12109 8.8086,-4.12109 1.48437,0 2.98828,0.29297 1.52344,0.29297 3.16406,0.87891 z"
         id="path6160"
         inkscape:connector-curvature="0" />
    </g>
    <g
       aria-label="1"
       transform="matrix(0.20577908,0,0,0.20576021,37.349801,187.88815)"
       style="font-style:normal;font-variant:normal;font-weight:normal;font-stretch:normal;font-size:40px;line-height:1.25;font-family:peep;-inkscape-font-specification:peep;letter-spacing:0px;word-spacing:0px;fill:#000000;fill-opacity:1;stroke:none"
       id="flowRoot5818-9-8-6">
      <path
         d="m 144.47656,140.71094 h 6.44531 v -22.2461 l -7.01171,1.40625 v -3.59375 l 6.97265,-1.40625 h 3.94531 v 25.83985 h 6.44532 v 3.32031 h -16.79688 z"
         id="path6157"
         inkscape:connector-curvature="0" />
    </g>
    <g
       aria-label="2"
       transform="matrix(0.20577908,0,0,0.20576021,51.258687,201.6686)"
       style="font-style:normal;font-variant:normal;font-weight:normal;font-stretch:normal;font-size:40px;line-height:1.25;font-family:peep;-inkscape-font-specification:peep;letter-spacing:0px;word-spacing:0px;fill:#000000;fill-opacity:1;stroke:none"
       id="flowRoot5818-9-8-6-1">
      <path
         d="m 147.19141,140.71094 h 13.76953 v 3.32031 h -18.51563 v -3.32031 q 2.2461,-2.32422 6.11328,-6.23047 3.88672,-3.92578 4.88282,-5.0586 1.89453,-2.1289 2.63671,-3.59374 0.76172,-1.48438 0.76172,-2.91016 0,-2.32422 -1.64062,-3.78906 -1.6211,-1.46485 -4.23828,-1.46485 -1.85547,0 -3.92578,0.64453 -2.05079,0.64454 -4.39454,1.95313 v -3.98438 q 2.38282,-0.95703 4.45313,-1.44531 2.07031,-0.48828 3.78906,-0.48828 4.53125,0 7.22656,2.26563 2.69532,2.26562 2.69532,6.05468 0,1.79688 -0.6836,3.41797 -0.66406,1.60156 -2.4414,3.78906 -0.48828,0.56641 -3.10547,3.28125 -2.61719,2.69532 -7.38281,7.5586 z"
         id="path6154"
         inkscape:connector-curvature="0" />
    </g>
    <g
       aria-label="3"
       transform="matrix(0.20578962,0,0,0.20576021,56.186117,220.36006)"
       style="font-style:normal;font-variant:normal;font-weight:normal;font-stretch:normal;font-size:40px;line-height:1.25;font-family:peep;-inkscape-font-specification:peep;letter-spacing:0px;word-spacing:0px;fill:#000000;fill-opacity:1;stroke:none"
       id="flowRoot5818-9-8-6-1-9">
      <path
         d="m 155.74609,128.30859 q 2.83203,0.60547 4.41407,2.51953 1.60156,1.91407 1.60156,4.72657 0,4.3164 -2.96875,6.67968 -2.96875,2.36329 -8.4375,2.36329 -1.83594,0 -3.78906,-0.3711 -1.9336,-0.35156 -4.00391,-1.07422 v -3.80859 q 1.64062,0.95703 3.59375,1.44531 1.95312,0.48828 4.08203,0.48828 3.71094,0 5.64453,-1.46484 1.95313,-1.46484 1.95313,-4.25781 0,-2.57813 -1.81641,-4.02344 -1.79687,-1.46484 -5.01953,-1.46484 h -3.39844 v -3.24219 h 3.55469 q 2.91016,0 4.45312,-1.15234 1.54297,-1.17188 1.54297,-3.35938 0,-2.24609 -1.60156,-3.4375 -1.58203,-1.21094 -4.55078,-1.21094 -1.62109,0 -3.47656,0.35157 -1.85547,0.35156 -4.08203,1.09375 v -3.51563 q 2.24609,-0.625 4.19921,-0.9375 1.97266,-0.3125 3.71094,-0.3125 4.49219,0 7.10938,2.05078 2.61718,2.03125 2.61718,5.50781 0,2.42188 -1.38671,4.10157 -1.38672,1.66015 -3.94532,2.30468 z"
         id="path6151"
         inkscape:connector-curvature="0" />
    </g>
    <g
       aria-label="4"
       transform="matrix(0.20577908,0,0,0.20576021,51.178143,239.1141)"
       style="font-style:normal;font-variant:normal;font-weight:normal;font-stretch:normal;font-size:40px;line-height:1.25;font-family:peep;-inkscape-font-specification:peep;letter-spacing:0px;word-spacing:0px;fill:#000000;fill-opacity:1;stroke:none"
       id="flowRoot5818-9-8-6-1-7">
      <path
         d="m 154.63281,118.30859 -9.96094,15.56641 h 9.96094 z m -1.03515,-3.4375 h 4.96093 V 133.875 h 4.16016 v 3.28125 h -4.16016 v 6.875 h -3.92578 v -6.875 h -13.16406 v -3.80859 z"
         id="path6148"
         inkscape:connector-curvature="0" />
    </g>
    <g
       aria-label="7"
       transform="matrix(0.20576771,0,0,0.20576021,-0.06198596,252.84005)"
       style="font-style:normal;font-variant:normal;font-weight:normal;font-stretch:normal;font-size:40px;line-height:1.25;font-family:peep;-inkscape-font-specification:peep;letter-spacing:0px;word-spacing:0px;fill:#000000;fill-opacity:1;stroke:none"
       id="flowRoot5818-9-8-9">
      <path
         d="m 142.79687,114.87109 h 18.75 v 1.67969 l -10.58593,27.48047 h -4.1211 l 9.96094,-25.83984 h -14.00391 z"
         id="path6145"
         inkscape:connector-curvature="0" />
    </g>
    <g
       aria-label="8"
       transform="matrix(0.20576771,0,0,0.20576021,-13.79989,239.11006)"
       style="font-style:normal;font-variant:normal;font-weight:normal;font-stretch:normal;font-size:40px;line-height:1.25;font-family:peep;-inkscape-font-specification:peep;letter-spacing:0px;word-spacing:0px;fill:#000000;fill-opacity:1;stroke:none"
       id="flowRoot5818-9-8-9-3">
      <path
         d="m 152.23047,130.18359 q -2.8125,0 -4.4336,1.50391 -1.60156,1.50391 -1.60156,4.14062 0,2.63672 1.60156,4.14063 1.6211,1.50391 4.4336,1.50391 2.8125,0 4.43359,-1.50391 1.6211,-1.52344 1.6211,-4.14063 0,-2.63671 -1.6211,-4.14062 -1.60156,-1.50391 -4.43359,-1.50391 z m -3.94531,-1.67968 q -2.53907,-0.625 -3.96485,-2.36328 -1.40625,-1.73829 -1.40625,-4.23829 0,-3.49609 2.48047,-5.52734 2.5,-2.03125 6.83594,-2.03125 4.35547,0 6.83594,2.03125 2.48046,2.03125 2.48046,5.52734 0,2.5 -1.42578,4.23829 -1.40625,1.73828 -3.92578,2.36328 2.85156,0.66406 4.4336,2.59765 1.60156,1.9336 1.60156,4.72656 0,4.23829 -2.59766,6.50391 -2.57812,2.26563 -7.40234,2.26563 -4.82422,0 -7.42188,-2.26563 -2.57812,-2.26562 -2.57812,-6.50391 0,-2.79296 1.60156,-4.72656 1.60156,-1.93359 4.45313,-2.59765 z m -1.44532,-6.23047 q 0,2.26562 1.40625,3.53515 1.42578,1.26954 3.98438,1.26954 2.53906,0 3.96484,-1.26954 1.44531,-1.26953 1.44531,-3.53515 0,-2.26563 -1.44531,-3.53516 -1.42578,-1.26953 -3.96484,-1.26953 -2.5586,0 -3.98438,1.26953 -1.40625,1.26953 -1.40625,3.53516 z"
         id="path6142"
         inkscape:connector-curvature="0" />
    </g>
    <g
       aria-label="9"
       transform="matrix(0.20576771,0,0,0.20576021,-18.795749,220.36006)"
       style="font-style:normal;font-variant:normal;font-weight:normal;font-stretch:normal;font-size:40px;line-height:1.25;font-family:peep;-inkscape-font-specification:peep;letter-spacing:0px;word-spacing:0px;fill:#000000;fill-opacity:1;stroke:none"
       id="flowRoot5818-9-8-9-3-3">
      <path
         d="m 143.91016,143.42578 v -3.59375 q 1.48437,0.70313 3.00781,1.07422 1.52344,0.37109 2.98828,0.37109 3.90625,0 5.95703,-2.61718 2.07031,-2.63672 2.36328,-7.98829 -1.13281,1.67969 -2.87109,2.57813 -1.73828,0.89844 -3.84766,0.89844 -4.375,0 -6.93359,-2.63672 -2.53906,-2.65625 -2.53906,-7.24609 0,-4.49219 2.65625,-7.20704 2.65625,-2.71484 7.07031,-2.71484 5.05859,0 7.71484,3.88672 2.67578,3.86719 2.67578,11.25 0,6.89453 -3.28125,11.01562 -3.26172,4.10157 -8.78906,4.10157 -1.48437,0 -3.00781,-0.29297 -1.52344,-0.29297 -3.16406,-0.87891 z m 7.85156,-12.36328 q 2.65625,0 4.19922,-1.81641 1.5625,-1.8164 1.5625,-4.98046 0,-3.14454 -1.5625,-4.96094 -1.54297,-1.83594 -4.19922,-1.83594 -2.65625,0 -4.21875,1.83594 Q 146,121.12109 146,124.26563 q 0,3.16406 1.54297,4.98046 1.5625,1.81641 4.21875,1.81641 z"
         id="path6139"
         inkscape:connector-curvature="0" />
    </g>
    <g
       aria-label="11"
       transform="matrix(0.20576771,0,0,0.20576021,-2.7685633,187.88815)"
       style="font-style:normal;font-variant:normal;font-weight:normal;font-stretch:normal;font-size:40px;line-height:1.25;font-family:peep;-inkscape-font-specification:peep;letter-spacing:0px;word-spacing:0px;fill:#000000;fill-opacity:1;stroke:none"
       id="flowRoot5818-9-8-9-3-1">
      <path
         d="m 144.47656,140.71094 h 6.44531 v -22.2461 l -7.01171,1.40625 v -3.59375 l 6.97265,-1.40625 h 3.94531 v 25.83985 h 6.44532 v 3.32031 h -16.79688 z"
         id="path6134"
         inkscape:connector-curvature="0" />
      <path
         d="m 169.94531,140.71094 h 6.44531 v -22.2461 l -7.01171,1.40625 v -3.59375 l 6.97265,-1.40625 h 3.94531 v 25.83985 h 6.44532 v 3.32031 h -16.79688 z"
         id="path6136"
         inkscape:connector-curvature="0" />
    </g>
    <g
       aria-label="10"
       transform="matrix(0.20576771,0,0,0.20576021,-16.071849,202.13923)"
       style="font-style:normal;font-variant:normal;font-weight:normal;font-stretch:normal;font-size:40px;line-height:1.25;font-family:peep;-inkscape-font-specification:peep;letter-spacing:0px;word-spacing:0px;fill:#000000;fill-opacity:1;stroke:none"
       id="flowRoot5818-9-8-9-3-9">
      <path
         d="m 144.47656,140.71094 h 6.44531 v -22.2461 l -7.01171,1.40625 v -3.59375 l 6.97265,-1.40625 h 3.94531 v 25.83985 h 6.44532 v 3.32031 h -16.79688 z"
         id="path6129"
         inkscape:connector-curvature="0" />
      <path
         d="m 177.69922,117.46875 q -3.04688,0 -4.58985,3.00781 -1.52343,2.98828 -1.52343,9.00391 0,5.99609 1.52343,9.0039 1.54297,2.98829 4.58985,2.98829 3.0664,0 4.58984,-2.98829 1.54297,-3.00781 1.54297,-9.0039 0,-6.01563 -1.54297,-9.00391 -1.52344,-3.00781 -4.58984,-3.00781 z m 0,-3.125 q 4.90234,0 7.48047,3.88672 2.59765,3.86719 2.59765,11.25 0,7.36328 -2.59765,11.25 -2.57813,3.86719 -7.48047,3.86719 -4.90235,0 -7.5,-3.86719 -2.57813,-3.88672 -2.57813,-11.25 0,-7.38281 2.57813,-11.25 2.59765,-3.88672 7.5,-3.88672 z"
         id="path6131"
         inkscape:connector-curvature="0" />
    </g>
  </g>
</svg>
