<?xml version="1.0" encoding="UTF-8" standalone="no"?>
<!-- Created with Inkscape (http://www.inkscape.org/) -->

<svg
   xmlns:dc="http://purl.org/dc/elements/1.1/"
   xmlns:cc="http://creativecommons.org/ns#"
   xmlns:rdf="http://www.w3.org/1999/02/22-rdf-syntax-ns#"
   xmlns:svg="http://www.w3.org/2000/svg"
   xmlns="http://www.w3.org/2000/svg"
   xmlns:sodipodi="http://sodipodi.sourceforge.net/DTD/sodipodi-0.dtd"
   xmlns:inkscape="http://www.inkscape.org/namespaces/inkscape"
   width="100mm"
   height="100mm"
   viewBox="0 0 100 100"
   version="1.1"
   id="svg8"
   inkscape:version="0.92.3 (2405546, 2018-03-11)"
   sodipodi:docname="face.svg">
  <defs
     id="defs2" />
  <sodipodi:namedview
     id="base"
     pagecolor="#ffffff"
     bordercolor="#666666"
     borderopacity="1.0"
     inkscape:pageopacity="0.0"
     inkscape:pageshadow="2"
     inkscape:zoom="2"
     inkscape:cx="140.51774"
     inkscape:cy="186.11563"
     inkscape:document-units="mm"
     inkscape:current-layer="layer1"
     showgrid="false"
     inkscape:window-width="1908"
     inkscape:window-height="1036"
     inkscape:window-x="5"
     inkscape:window-y="37"
     inkscape:window-maximized="1"
     showguides="true"
     inkscape:guide-bbox="true" />
  <metadata
     id="metadata5">
    <rdf:RDF>
      <cc:Work
         rdf:about="">
        <dc:format>image/svg+xml</dc:format>
        <dc:type
           rdf:resource="http://purl.org/dc/dcmitype/StillImage" />
        <dc:title></dc:title>
      </cc:Work>
    </rdf:RDF>
  </metadata>
  <g
     inkscape:label="Layer 1"
     inkscape:groupmode="layer"
     id="layer1"
     transform="translate(0,-197)">
    <path
       id="path5090-6-5-2-5-3-2-2"
       style="fill:none;stroke:#000000;stroke-width:0.75;stroke-linecap:butt;stroke-linejoin:miter;stroke-miterlimit:4;stroke-dasharray:none;stroke-opacity:1"
       d="m 54.70528,291.7324 0.261321,2.48631 z m 4.6536,-0.73311 0.519772,2.44538 z m 4.54972,-1.21914 0.772551,2.37766 z m 4.399491,-1.68461 1.016839,2.28386 z m 2.94384,-4.31397 2.49999,4.33013 z m 5.19378,-0.39586 1.46947,2.02255 z m 3.66358,-2.96168 1.67283,1.85787 z m 3.33061,-3.33067 1.85787,1.67283 z m 2.96776,-3.65867 2.022539,1.46947 z m 0.39789,-5.19661 4.33012,2.5 z m 4.30002,-2.93972 2.28387,1.01685 z m 1.69191,-4.39668 2.37765,0.77254 z m 1.21906,-4.54976 2.44538,0.51979 z m 0.74082,-4.65237 2.48631,0.26132 z m -2.283668,-4.66757 h 4.999992 z m 2.254066,-4.69588 2.486313,-0.26132 z m -0.733105,-4.6536 2.445377,-0.51977 z m -1.21914,-4.54972 2.377652,-0.77255 z m -1.684617,-4.39949 2.283866,-1.01684 z m -4.313962,-2.94384 4.330123,-2.49999 z m -0.395859,-5.19378 2.022547,-1.46947 z m -2.961686,-3.66358 1.857869,-1.67283 z m -3.33067,-3.33061 1.672834,-1.85787 z m -3.658665,-2.96776 1.469467,-2.02254 z m -5.196616,-0.39789 2.5,-4.33012 z m -2.939717,-4.30002 1.016846,-2.28387 z m -4.396685,-1.69191 0.772547,-2.37765 z m -4.549751,-1.21906 0.519782,-2.44538 z m -4.652375,-0.74082 0.261324,-2.48631 z m -4.708832,2.2754 v -4.99999 z m -4.69588,-2.25407 -0.26132,-2.48631 z m -4.6536,0.73311 -0.51977,-2.44538 z m -4.54972,1.21914 -0.77255,-2.37766 z m -4.39949,1.68461 -1.01684,-2.28386 z m -2.94384,4.31397 -2.49999,-4.33013 z m -5.19378,0.39586 -1.46947,-2.02255 z m -3.66358,2.96168 -1.67283,-1.85787 z m -3.33061,3.33067 -1.85787,-1.67283 z m -2.96776,3.65867 -2.02254,-1.46947 z m -0.39789,5.19661 -4.3301202,-2.5 z m -4.3000202,2.93972 -2.28387,-1.01685 z m -1.69191,4.39668 -2.37765,-0.77254 z m -1.21906,4.54976 -2.44538,-0.51979 z m -0.74082,4.65237 -2.48631,-0.26132 z m 2.2836673,4.66757 H 2.5217944 Z m -2.2540661,4.69588 -2.4863129,0.26132 z m 0.7331053,4.6536 -2.4453767,0.51977 z m 1.2191398,4.54972 -2.3776517,0.77255 z m 1.6846169,4.39949 -2.2838658,1.01684 z m 4.313963,2.94384 -4.3301231,2.49999 z m 0.395859,5.19378 -2.022548,1.46947 z m 2.961686,3.66358 -1.857869,1.67283 z m 3.33067,3.33061 -1.672834,1.85787 z m 3.658665,2.96776 -1.469467,2.02254 z M 97.168779,251.95742 A 47.424641,47.424644 6 0 1 45.046711,294.16505 47.424641,47.424644 6 0 1 2.8390929,242.04297 47.424641,47.424644 6 0 1 54.961161,199.83535 47.424641,47.424644 6 0 1 97.168779,251.95742 Z m -68.406738,31.8445 -2.5,4.33012 z m 2.939716,4.30002 -1.016845,2.28387 z m 4.396685,1.69191 -0.772545,2.37765 z m 4.549751,1.21906 -0.519781,2.44538 z m 4.652375,0.74082 -0.261322,2.48631 z M 49.999912,289.5 v 5 z"
       inkscape:connector-curvature="0" />
    <flowRoot
       xml:space="preserve"
       id="flowRoot5818"
       style="font-style:normal;font-variant:normal;font-weight:normal;font-stretch:normal;font-size:40px;line-height:1.25;font-family:peep;-inkscape-font-specification:peep;letter-spacing:0px;word-spacing:0px;fill:#000000;fill-opacity:1;stroke:none"
       transform="matrix(0.20210526,0,0,0.20210526,16.6185,183.39053)"><flowRegion
         id="flowRegion5820"><rect
           id="rect5822"
           width="55.463573"
           height="45.743141"
           x="139.5166"
           y="108.63998" /></flowRegion><flowPara
         id="flowPara5824">12</flowPara></flowRoot>    <flowRoot
       xml:space="preserve"
       id="flowRoot5818-9-8"
       style="font-style:normal;font-variant:normal;font-weight:normal;font-stretch:normal;font-size:40px;line-height:1.25;font-family:peep;-inkscape-font-specification:peep;letter-spacing:0px;word-spacing:0px;fill:#000000;fill-opacity:1;stroke:none"
       transform="matrix(0.20576771,0,0,0.20576021,37.466203,252.78201)"><flowRegion
         id="flowRegion5820-5-7"><rect
           id="rect5822-0-1"
           width="55.463573"
           height="45.743141"
           x="139.5166"
           y="108.63998" /></flowRegion><flowPara
         id="flowPara5824-4-7">5</flowPara></flowRoot>    <flowRoot
       xml:space="preserve"
       id="flowRoot5818-9-8-2"
       style="font-style:normal;font-variant:normal;font-weight:normal;font-stretch:normal;font-size:40px;line-height:1.25;font-family:peep;-inkscape-font-specification:peep;letter-spacing:0px;word-spacing:0px;fill:#000000;fill-opacity:1;stroke:none"
       transform="matrix(0.20576771,0,0,0.20576021,18.646487,257.86006)"><flowRegion
         id="flowRegion5820-5-7-7"><rect
           id="rect5822-0-1-2"
           width="55.463573"
           height="45.743141"
           x="139.5166"
           y="108.63998" /></flowRegion><flowPara
         id="flowPara5824-4-7-2">6</flowPara></flowRoot>    <flowRoot
       xml:space="preserve"
       id="flowRoot5818-9-8-6"
       style="font-style:normal;font-variant:normal;font-weight:normal;font-stretch:normal;font-size:40px;line-height:1.25;font-family:peep;-inkscape-font-specification:peep;letter-spacing:0px;word-spacing:0px;fill:#000000;fill-opacity:1;stroke:none"
       transform="matrix(0.20577908,0,0,0.20576021,37.349801,187.88815)"><flowRegion
         id="flowRegion5820-5-7-1"><rect
           id="rect5822-0-1-0"
           width="55.463573"
           height="45.743141"
           x="139.5166"
           y="108.63998" /></flowRegion><flowPara
         id="flowPara5824-4-7-6">1</flowPara></flowRoot>    <flowRoot
       xml:space="preserve"
       id="flowRoot5818-9-8-6-1"
       style="font-style:normal;font-variant:normal;font-weight:normal;font-stretch:normal;font-size:40px;line-height:1.25;font-family:peep;-inkscape-font-specification:peep;letter-spacing:0px;word-spacing:0px;fill:#000000;fill-opacity:1;stroke:none"
       transform="matrix(0.20577908,0,0,0.20576021,51.258687,201.6686)"><flowRegion
         id="flowRegion5820-5-7-1-5"><rect
           id="rect5822-0-1-0-9"
           width="55.463573"
           height="45.743141"
           x="139.5166"
           y="108.63998" /></flowRegion><flowPara
         id="flowPara5824-4-7-6-4">2</flowPara></flowRoot>    <flowRoot
       xml:space="preserve"
       id="flowRoot5818-9-8-6-1-9"
       style="font-style:normal;font-variant:normal;font-weight:normal;font-stretch:normal;font-size:40px;line-height:1.25;font-family:peep;-inkscape-font-specification:peep;letter-spacing:0px;word-spacing:0px;fill:#000000;fill-opacity:1;stroke:none"
       transform="matrix(0.20578962,0,0,0.20576021,56.186117,220.36006)"><flowRegion
         id="flowRegion5820-5-7-1-5-0"><rect
           id="rect5822-0-1-0-9-9"
           width="55.463573"
           height="45.743141"
           x="139.5166"
           y="108.63998" /></flowRegion><flowPara
         id="flowPara5824-4-7-6-4-1">3</flowPara></flowRoot>    <flowRoot
       xml:space="preserve"
       id="flowRoot5818-9-8-6-1-7"
       style="font-style:normal;font-variant:normal;font-weight:normal;font-stretch:normal;font-size:40px;line-height:1.25;font-family:peep;-inkscape-font-specification:peep;letter-spacing:0px;word-spacing:0px;fill:#000000;fill-opacity:1;stroke:none"
       transform="matrix(0.20577908,0,0,0.20576021,51.178143,239.1141)"><flowRegion
         id="flowRegion5820-5-7-1-5-7"><rect
           id="rect5822-0-1-0-9-1"
           width="55.463573"
           height="45.743141"
           x="139.5166"
           y="108.63998" /></flowRegion><flowPara
         id="flowPara5824-4-7-6-4-15">4</flowPara></flowRoot>    <flowRoot
       xml:space="preserve"
       id="flowRoot5818-9-8-9"
       style="font-style:normal;font-variant:normal;font-weight:normal;font-stretch:normal;font-size:40px;line-height:1.25;font-family:peep;-inkscape-font-specification:peep;letter-spacing:0px;word-spacing:0px;fill:#000000;fill-opacity:1;stroke:none"
       transform="matrix(0.20576771,0,0,0.20576021,-0.06198596,252.84005)"><flowRegion
         id="flowRegion5820-5-7-77"><rect
           id="rect5822-0-1-6"
           width="55.463573"
           height="45.743141"
           x="139.5166"
           y="108.63998" /></flowRegion><flowPara
         id="flowPara5824-4-7-7">7</flowPara></flowRoot>    <flowRoot
       xml:space="preserve"
       id="flowRoot5818-9-8-9-3"
       style="font-style:normal;font-variant:normal;font-weight:normal;font-stretch:normal;font-size:40px;line-height:1.25;font-family:peep;-inkscape-font-specification:peep;letter-spacing:0px;word-spacing:0px;fill:#000000;fill-opacity:1;stroke:none"
       transform="matrix(0.20576771,0,0,0.20576021,-13.79989,239.11006)"><flowRegion
         id="flowRegion5820-5-7-77-6"><rect
           id="rect5822-0-1-6-5"
           width="55.463573"
           height="45.743141"
           x="139.5166"
           y="108.63998" /></flowRegion><flowPara
         id="flowPara5824-4-7-7-6">8</flowPara></flowRoot>    <flowRoot
       xml:space="preserve"
       id="flowRoot5818-9-8-9-3-3"
       style="font-style:normal;font-variant:normal;font-weight:normal;font-stretch:normal;font-size:40px;line-height:1.25;font-family:peep;-inkscape-font-specification:peep;letter-spacing:0px;word-spacing:0px;fill:#000000;fill-opacity:1;stroke:none"
       transform="matrix(0.20576771,0,0,0.20576021,-18.795749,220.36006)"><flowRegion
         id="flowRegion5820-5-7-77-6-9"><rect
           id="rect5822-0-1-6-5-4"
           width="55.463573"
           height="45.743141"
           x="139.5166"
           y="108.63998" /></flowRegion><flowPara
         id="flowPara5824-4-7-7-6-8">9</flowPara></flowRoot>    <flowRoot
       xml:space="preserve"
       id="flowRoot5818-9-8-9-3-1"
       style="font-style:normal;font-variant:normal;font-weight:normal;font-stretch:normal;font-size:40px;line-height:1.25;font-family:peep;-inkscape-font-specification:peep;letter-spacing:0px;word-spacing:0px;fill:#000000;fill-opacity:1;stroke:none"
       transform="matrix(0.20576771,0,0,0.20576021,-2.7685633,187.88815)"><flowRegion
         id="flowRegion5820-5-7-77-6-2"><rect
           id="rect5822-0-1-6-5-9"
           width="55.463573"
           height="45.743141"
           x="139.5166"
           y="108.63998" /></flowRegion><flowPara
         id="flowPara5824-4-7-7-6-3">11</flowPara></flowRoot>    <flowRoot
       xml:space="preserve"
       id="flowRoot5818-9-8-9-3-9"
       style="font-style:normal;font-variant:normal;font-weight:normal;font-stretch:normal;font-size:40px;line-height:1.25;font-family:peep;-inkscape-font-specification:peep;letter-spacing:0px;word-spacing:0px;fill:#000000;fill-opacity:1;stroke:none"
       transform="matrix(0.20576771,0,0,0.20576021,-16.071849,202.13923)"><flowRegion
         id="flowRegion5820-5-7-77-6-0"><rect
           id="rect5822-0-1-6-5-8"
           width="55.463573"
           height="45.743141"
           x="139.5166"
           y="108.63998" /></flowRegion><flowPara
         id="flowPara5824-4-7-7-6-85">10</flowPara></flowRoot>  </g>
</svg>
